# xmcd
#
# Track frame offsets:
#	150
#	14218
#	33074
#	66354
#	91149
#
# Disc length: 1736 seconds
#
# Revision: 0
# Processed by: cddbd v1.5.2PL0 Copyright (c) Steve Scherf et al.
# Submitted via: dBpowerAMP V4.0
#
DISCID=3906c605
DTITLE=Luxembourg Blues Allstars-Cavallini/Kartheiser - Luxembourg Blues Allstars
DYEAR=2009
DGENRE=Blues
TTITLE0=Phantalogy-Cavallini
TTITLE1=Bluesin' with Daddy-Cavallini
TTITLE2=Jul-Kartheiser
TTITLE3=Jam Aika-Cavallini
TTITLE4=Back to Luisiana-Kartheiser
EXTD=
EXTT0=
EXTT1=
EXTT2=
EXTT3=
EXTT4=
PLAYORDER=
